<svg width="32" height="32" viewBox="0 0 32 32" fill="none" xmlns="http://www.w3.org/2000/svg">
<path fill-rule="evenodd" clip-rule="evenodd" d="M13.1541 8.63292L21.7114 12.3767C22.8274 12.8649 23.7976 13.2893 24.478 13.7108C25.1448 14.124 26.0068 14.8193 26.0068 16C26.0068 17.1807 25.1448 17.876 24.478 18.2892C23.7977 18.7107 22.8274 19.1351 21.7114 19.6233L13.1541 23.3671C11.7108 23.9986 10.5025 24.5273 9.57525 24.7957C9.09867 24.9336 8.58021 25.0395 8.07364 25.0082C7.52057 24.974 6.94787 24.771 6.50617 24.2794C6.06447 23.7879 5.92364 23.1968 5.94855 22.6432C5.97138 22.1362 6.13188 21.632 6.31981 21.1728C6.68547 20.2794 7.33983 19.1344 8.1215 17.7666L8.75294 16.6615C8.95027 16.3162 9.04982 16.139 9.10929 16.0064L9.11215 16L9.10929 15.9936C9.04982 15.861 8.95027 15.6838 8.75294 15.3385L8.17311 14.3238C8.15585 14.2936 8.13865 14.2635 8.12151 14.2335C7.33983 12.8657 6.68547 11.7207 6.31981 10.8272C6.13188 10.3681 5.97138 9.86382 5.94855 9.3568C5.92364 8.80323 6.06447 8.21217 6.50617 7.72061C6.94787 7.22905 7.52057 7.02606 8.07364 6.99186C8.58021 6.96054 9.09867 7.06641 9.57525 7.20435C10.5026 7.47276 11.7108 8.00141 13.1541 8.63292ZM8.75875 9.74473C8.76786 9.76797 8.77752 9.79209 8.78776 9.81713C9.07867 10.5279 9.6418 11.5192 10.4884 13.0008L11.0683 14.0155C11.076 14.029 11.0837 14.0425 11.0914 14.056C11.2559 14.3437 11.423 14.6359 11.5424 14.9023C11.6794 15.2078 11.7976 15.5695 11.7976 16C11.7976 16.4306 11.6794 16.7923 11.5424 17.0977C11.423 17.3641 11.2559 17.6564 11.0914 17.944C11.0837 17.9576 11.076 17.9711 11.0683 17.9846L10.4884 18.9993C9.6418 20.4809 9.07867 21.4721 8.78776 22.1829C8.77752 22.2079 8.76786 22.2321 8.75875 22.2553C8.78282 22.2487 8.80784 22.2417 8.83382 22.2342C9.57154 22.0206 10.6171 21.5663 12.1805 20.8823L20.548 17.2216C21.7863 16.6798 22.5759 16.3307 23.0734 16.0224C23.0857 16.0148 23.0976 16.0073 23.1091 16C23.0976 15.9927 23.0857 15.9853 23.0734 15.9776C22.5759 15.6693 21.7863 15.3202 20.548 14.7785L12.1805 11.1177C10.6172 10.4337 9.57154 9.9794 8.83382 9.76587C8.80784 9.75835 8.78282 9.75131 8.75875 9.74473ZM23.4055 16.2278C23.4055 16.2278 23.4014 16.2239 23.3961 16.2161C23.4033 16.2239 23.4055 16.2278 23.4055 16.2278ZM23.3961 15.7839C23.4014 15.7761 23.4055 15.7722 23.4055 15.7722C23.4055 15.7722 23.4033 15.7761 23.3961 15.7839Z" fill="#A3A3A3"/>
</svg>
